# xmcd
#
# Track frame offsets: 
#        188
#        44263
#        82213
#        149413
#        195538
#        229588
#
# Disc length: 4007 seconds
#
# Revision: 4
# Processed by: cddbd v1.5.2PL0 Copyright (c) Steve Scherf et al.
# Submitted via: ExactAudioCopy v0.95b4
#
DISCID=4e0fa506
DTITLE=Colosseum - Colosseum Live
DYEAR=1977
DGENRE=Rock
TTITLE0=Rope ladder to the moon
TTITLE1=Walking in the park
TTITLE2=Skelington
TTITLE3=Tanglewood '63'
TTITLE4=Encore... "Stormy monday blues"
TTITLE5=Lost Angeles
EXTD=YEAR: 1977
EXTT0=
EXTT1=
EXTT2=
EXTT3=
EXTT4=
EXTT5=
PLAYORDER=
